<svg width="100" height="100" viewBox="0 0 100 100" fill="none" xmlns="http://www.w3.org/2000/svg">
<path fill-rule="evenodd" clip-rule="evenodd" d="M62 98.5507C83.8186 93.176 100 73.4777 100 50C100 22.3858 77.6142 0 50 0C22.3858 0 0 22.3858 0 50C0 73.298 15.9347 92.8743 37.5 98.4248V86.5C33 87.1667 23.5 86.8 21.5 80C19.847 74.3797 17.9754 74.0058 16.3188 73.6749C15.47 73.5053 14.6776 73.347 14 72.5C12.4 70.5 15.6667 70.3333 17.5 70.5C19.1667 71.1667 23.2 73.7 26 78.5C28.8 83.3 34.8334 81.5 37.5 80C38 77.5 39.4 72.5 41 72.5C29.6666 71 10.3999 61.5 23.9999 35.5C23.3333 32.6667 22.3999 26.2 23.9999 23C25.8333 22.1667 31.1 21.9 37.5 27.5C44 26 55.6 25.9 62 27.5C64.1667 25.5 69.8 21.8 75 23C76.5 24.5 77.5 32 76 35.5C81.8334 46.1667 86.7 68.5 59.5 72.5C60.3334 73.5 62 76.4 62 80V98.5507Z" fill="white"/>
</svg>
