<svg width="100" height="100" viewBox="0 0 100 100" fill="none" xmlns="http://www.w3.org/2000/svg">
<g clip-path="url(#clip0_809_4)">
<path fill-rule="evenodd" clip-rule="evenodd" d="M50 100C77.6142 100 100 77.6142 100 50C100 22.3858 77.6142 0 50 0C22.3858 0 0 22.3858 0 50C0 77.6142 22.3858 100 50 100ZM18 37C18 34.4481 18.9559 32.1194 20.5292 30.3525L33.6181 41.025L41.7431 47.65L44.8257 50.1635L20.6103 68.7375C18.9888 66.9601 18 64.5955 18 62V37ZM28 72C25.8055 72 23.7761 71.2931 22.1271 70.0947L46.4185 51.4623L49.8681 54.275L50.5 54.7903L51.1319 54.275L54.5815 51.4623L78.8729 70.0947C77.2239 71.2931 75.1945 72 73 72H28ZM83 62C83 64.5955 82.0112 66.9601 80.3897 68.7375L56.1743 50.1635L59.2569 47.65L67.3819 41.025L80.4708 30.3525C82.0441 32.1194 83 34.4481 83 37V62ZM73 27C75.2432 27 77.3139 27.7386 78.9821 28.9858L66.1181 39.475L57.9931 46.1L53.9306 49.4125L50.5 52.2097L47.0694 49.4125L43.0069 46.1L34.8819 39.475L22.0179 28.9858C23.6862 27.7386 25.7568 27 28 27H73Z" fill="white"/>
</g>
<defs>
<clipPath id="clip0_809_4">
<rect width="100" height="100" fill="white"/>
</clipPath>
</defs>
</svg>
